<svg width="140" height="53" viewBox="0 0 140 53" fill="none" xmlns="http://www.w3.org/2000/svg">
<g clip-path="url(#clip0_117_2)">
<rect width="140" height="53" fill="#121214"/>
<path d="M8.125 20.8672V42H2.48047V20.8672H8.125ZM2.12891 15.3594C2.12891 14.5391 2.41536 13.862 2.98828 13.3281C3.5612 12.7943 4.32943 12.5273 5.29297 12.5273C6.24349 12.5273 7.00521 12.7943 7.57812 13.3281C8.16406 13.862 8.45703 14.5391 8.45703 15.3594C8.45703 16.1797 8.16406 16.8568 7.57812 17.3906C7.00521 17.9245 6.24349 18.1914 5.29297 18.1914C4.32943 18.1914 3.5612 17.9245 2.98828 17.3906C2.41536 16.8568 2.12891 16.1797 2.12891 15.3594ZM26.1523 20.8672H31.25V41.2969C31.25 43.224 30.8203 44.8581 29.9609 46.1992C29.1146 47.5534 27.9297 48.5755 26.4062 49.2656C24.8828 49.9688 23.112 50.3203 21.0938 50.3203C20.2083 50.3203 19.2708 50.2031 18.2812 49.9688C17.3047 49.7344 16.3672 49.3698 15.4688 48.875C14.5833 48.3802 13.8411 47.7552 13.2422 47L15.7227 43.6797C16.3737 44.4349 17.1289 45.0208 17.9883 45.4375C18.8477 45.8672 19.7982 46.082 20.8398 46.082C21.8555 46.082 22.7148 45.8932 23.418 45.5156C24.1211 45.151 24.6615 44.6107 25.0391 43.8945C25.4167 43.1914 25.6055 42.3385 25.6055 41.3359V25.75L26.1523 20.8672ZM11.9336 31.6875V31.2773C11.9336 29.6628 12.1289 28.1979 12.5195 26.8828C12.9232 25.5547 13.4896 24.4154 14.2188 23.4648C14.9609 22.5143 15.8594 21.7786 16.9141 21.2578C17.9688 20.737 19.1602 20.4766 20.4883 20.4766C21.8945 20.4766 23.0729 20.737 24.0234 21.2578C24.974 21.7786 25.7552 22.5208 26.3672 23.4844C26.9792 24.4349 27.4544 25.5612 27.793 26.8633C28.1445 28.1523 28.418 29.5651 28.6133 31.1016V32C28.418 33.4714 28.125 34.8385 27.7344 36.1016C27.3438 37.3646 26.8294 38.4714 26.1914 39.4219C25.5534 40.3594 24.7591 41.0885 23.8086 41.6094C22.8711 42.1302 21.7513 42.3906 20.4492 42.3906C19.1471 42.3906 17.9688 42.1237 16.9141 41.5898C15.8724 41.056 14.9805 40.3073 14.2383 39.3438C13.4961 38.3802 12.9232 37.2474 12.5195 35.9453C12.1289 34.6432 11.9336 33.224 11.9336 31.6875ZM17.5586 31.2773V31.6875C17.5586 32.5599 17.6432 33.3737 17.8125 34.1289C17.9818 34.8841 18.2422 35.5547 18.5938 36.1406C18.9583 36.7135 19.4076 37.1628 19.9414 37.4883C20.4883 37.8008 21.1328 37.957 21.875 37.957C22.9036 37.957 23.7435 37.7422 24.3945 37.3125C25.0456 36.8698 25.5339 36.2643 25.8594 35.4961C26.1849 34.7279 26.3737 33.8424 26.4258 32.8398V30.2812C26.3997 29.4609 26.2891 28.7253 26.0938 28.0742C25.8984 27.4102 25.625 26.8438 25.2734 26.375C24.9219 25.9062 24.4661 25.5417 23.9062 25.2812C23.3464 25.0208 22.6823 24.8906 21.9141 24.8906C21.1719 24.8906 20.5273 25.0599 19.9805 25.3984C19.4466 25.724 18.9974 26.1732 18.6328 26.7461C18.2812 27.319 18.0143 27.9961 17.832 28.7773C17.6497 29.5456 17.5586 30.3789 17.5586 31.2773ZM35.8984 39.2852C35.8984 38.4518 36.1849 37.7552 36.7578 37.1953C37.3438 36.6354 38.1185 36.3555 39.082 36.3555C40.0456 36.3555 40.8138 36.6354 41.3867 37.1953C41.9727 37.7552 42.2656 38.4518 42.2656 39.2852C42.2656 40.1185 41.9727 40.8151 41.3867 41.375C40.8138 41.9349 40.0456 42.2148 39.082 42.2148C38.1185 42.2148 37.3438 41.9349 36.7578 41.375C36.1849 40.8151 35.8984 40.1185 35.8984 39.2852ZM52.7344 25.3789V42H47.1094V20.8672H52.3828L52.7344 25.3789ZM51.9141 30.6914H50.3906C50.3906 29.1289 50.5924 27.7227 50.9961 26.4727C51.3997 25.2096 51.9661 24.1354 52.6953 23.25C53.4245 22.3516 54.2904 21.668 55.293 21.1992C56.3086 20.7174 57.4414 20.4766 58.6914 20.4766C59.681 20.4766 60.5859 20.6198 61.4062 20.9062C62.2266 21.1927 62.9297 21.6484 63.5156 22.2734C64.1146 22.8984 64.5703 23.7253 64.8828 24.7539C65.2083 25.7826 65.3711 27.0391 65.3711 28.5234V42H59.707V28.5039C59.707 27.5664 59.5768 26.8372 59.3164 26.3164C59.056 25.7956 58.6719 25.431 58.1641 25.2227C57.6693 25.0013 57.0573 24.8906 56.3281 24.8906C55.5729 24.8906 54.9154 25.0404 54.3555 25.3398C53.8086 25.6393 53.3529 26.056 52.9883 26.5898C52.6367 27.1107 52.3698 27.7227 52.1875 28.4258C52.0052 29.1289 51.9141 29.8841 51.9141 30.6914ZM79.375 42.3906C77.7344 42.3906 76.263 42.1302 74.9609 41.6094C73.6589 41.0755 72.5521 40.3398 71.6406 39.4023C70.7422 38.4648 70.0521 37.3776 69.5703 36.1406C69.0885 34.8906 68.8477 33.5625 68.8477 32.1562V31.375C68.8477 29.7734 69.0755 28.3086 69.5312 26.9805C69.987 25.6523 70.638 24.5 71.4844 23.5234C72.3438 22.5469 73.3854 21.7982 74.6094 21.2773C75.8333 20.7435 77.2135 20.4766 78.75 20.4766C80.2474 20.4766 81.5755 20.724 82.7344 21.2188C83.8932 21.7135 84.8633 22.4167 85.6445 23.3281C86.4388 24.2396 87.0378 25.3333 87.4414 26.6094C87.8451 27.8724 88.0469 29.2786 88.0469 30.8281V33.1719H71.25V29.4219H82.5195V28.9922C82.5195 28.2109 82.3763 27.5143 82.0898 26.9023C81.8164 26.2773 81.3997 25.7826 80.8398 25.418C80.2799 25.0534 79.5638 24.8711 78.6914 24.8711C77.9492 24.8711 77.3112 25.0339 76.7773 25.3594C76.2435 25.6849 75.8073 26.1406 75.4688 26.7266C75.1432 27.3125 74.8958 28.0026 74.7266 28.7969C74.5703 29.5781 74.4922 30.4375 74.4922 31.375V32.1562C74.4922 33.0026 74.6094 33.7839 74.8438 34.5C75.0911 35.2161 75.4362 35.8346 75.8789 36.3555C76.3346 36.8763 76.8815 37.2799 77.5195 37.5664C78.1706 37.8529 78.9062 37.9961 79.7266 37.9961C80.7422 37.9961 81.6862 37.8008 82.5586 37.4102C83.444 37.0065 84.2057 36.401 84.8438 35.5938L87.5781 38.5625C87.1354 39.2005 86.5299 39.8125 85.7617 40.3984C85.0065 40.9844 84.0951 41.4661 83.0273 41.8438C81.9596 42.2083 80.7422 42.3906 79.375 42.3906ZM97.2852 36.5312L101.68 20.8672H105.254L104.102 27.0195L99.707 42H96.7188L97.2852 36.5312ZM95.0586 20.8672L98.2031 36.5117L98.4961 42H94.9805L89.6289 20.8672H95.0586ZM109.277 36.2578L112.344 20.8672H117.793L112.441 42H108.945L109.277 36.2578ZM105.742 20.8672L110.117 36.4141L110.723 42H107.715L103.32 27.0391L102.207 20.8672H105.742ZM132.051 36.1602C132.051 35.7565 131.934 35.3919 131.699 35.0664C131.465 34.7409 131.029 34.4414 130.391 34.168C129.766 33.8815 128.861 33.6211 127.676 33.3867C126.608 33.1523 125.612 32.8594 124.688 32.5078C123.776 32.1432 122.982 31.707 122.305 31.1992C121.641 30.6914 121.12 30.0924 120.742 29.4023C120.365 28.6992 120.176 27.8984 120.176 27C120.176 26.1146 120.365 25.2812 120.742 24.5C121.133 23.7188 121.686 23.0286 122.402 22.4297C123.132 21.8177 124.017 21.3424 125.059 21.0039C126.113 20.6523 127.298 20.4766 128.613 20.4766C130.449 20.4766 132.025 20.7695 133.34 21.3555C134.668 21.9414 135.684 22.7487 136.387 23.7773C137.103 24.793 137.461 25.9518 137.461 27.2539H131.836C131.836 26.707 131.719 26.2188 131.484 25.7891C131.263 25.3464 130.911 25.0013 130.43 24.7539C129.961 24.4935 129.349 24.3633 128.594 24.3633C127.969 24.3633 127.428 24.474 126.973 24.6953C126.517 24.9036 126.165 25.1901 125.918 25.5547C125.684 25.9062 125.566 26.2969 125.566 26.7266C125.566 27.0521 125.632 27.3451 125.762 27.6055C125.905 27.8529 126.133 28.0807 126.445 28.2891C126.758 28.4974 127.161 28.6927 127.656 28.875C128.164 29.0443 128.789 29.2005 129.531 29.3438C131.055 29.6562 132.415 30.0664 133.613 30.5742C134.811 31.069 135.762 31.7461 136.465 32.6055C137.168 33.4518 137.52 34.5651 137.52 35.9453C137.52 36.8828 137.311 37.7422 136.895 38.5234C136.478 39.3047 135.879 39.9883 135.098 40.5742C134.316 41.1471 133.379 41.5964 132.285 41.9219C131.204 42.2344 129.987 42.3906 128.633 42.3906C126.667 42.3906 125 42.0391 123.633 41.3359C122.279 40.6328 121.25 39.7409 120.547 38.6602C119.857 37.5664 119.512 36.4466 119.512 35.3008H124.844C124.87 36.069 125.065 36.6875 125.43 37.1562C125.807 37.625 126.283 37.9635 126.855 38.1719C127.441 38.3802 128.073 38.4844 128.75 38.4844C129.479 38.4844 130.085 38.3867 130.566 38.1914C131.048 37.9831 131.413 37.7096 131.66 37.3711C131.921 37.0195 132.051 36.6159 132.051 36.1602Z" fill="white"/>
</g>
<defs>
<clipPath id="clip0_117_2">
<rect width="140" height="53" fill="white"/>
</clipPath>
</defs>
</svg>
